<svg xmlns="http://www.w3.org/2000/svg" xmlns:xlink="http://www.w3.org/1999/xlink" width="500" zoomAndPan="magnify" viewBox="0 0 375 374.999991" height="500" preserveAspectRatio="xMidYMid meet" version="1.0"><defs><clipPath id="c456fd46bc"><path d="M 74.941406 174 L 217 174 L 217 316.6875 L 74.941406 316.6875 Z M 74.941406 174 " clip-rule="nonzero"/></clipPath><clipPath id="539610ffd3"><path d="M 222 175 L 299.941406 175 L 299.941406 253 L 222 253 Z M 222 175 " clip-rule="nonzero"/></clipPath></defs><rect x="-37.5" width="450" fill="#ffffff" y="-37.499999" height="449.999989" fill-opacity="1"/><rect x="-37.5" width="450" fill="#bb1b29" y="-37.499999" height="449.999989" fill-opacity="1"/><g clip-path="url(#c456fd46bc)"><path fill="#ffffff" d="M 117.605469 288.554688 C 118.015625 288.554688 118.429688 288.667969 118.796875 288.890625 C 123.496094 291.800781 128.589844 293.914062 133.945312 295.171875 C 134.972656 295.414062 135.691406 296.320312 135.691406 297.375 L 135.691406 308.429688 C 135.691406 310.21875 137.148438 311.675781 138.941406 311.675781 L 152.347656 311.675781 C 154.140625 311.675781 155.597656 310.21875 155.597656 308.429688 L 155.597656 297.375 C 155.597656 296.324219 156.316406 295.414062 157.34375 295.171875 C 162.703125 293.914062 167.800781 291.800781 172.492188 288.894531 C 173.390625 288.34375 174.546875 288.476562 175.289062 289.21875 L 183.121094 297.039062 C 184.386719 298.304688 186.441406 298.304688 187.710938 297.039062 L 197.195312 287.570312 C 198.457031 286.304688 198.457031 284.246094 197.195312 282.980469 L 189.363281 275.15625 C 188.617188 274.414062 188.484375 273.257812 189.035156 272.363281 C 191.949219 267.671875 194.0625 262.574219 195.316406 257.230469 C 195.558594 256.207031 196.472656 255.480469 197.523438 255.480469 L 208.59375 255.480469 C 210.382812 255.480469 211.835938 254.027344 211.835938 252.242188 L 211.839844 238.839844 C 211.839844 237.054688 210.378906 235.601562 208.59375 235.601562 L 197.523438 235.601562 C 196.476562 235.601562 195.558594 234.875 195.316406 233.855469 C 194.0625 228.5 191.949219 223.40625 189.035156 218.714844 C 188.484375 217.824219 188.617188 216.667969 189.359375 215.925781 L 197.195312 208.101562 C 198.457031 206.835938 198.457031 204.777344 197.195312 203.519531 L 187.710938 194.042969 C 186.441406 192.777344 184.382812 192.777344 183.121094 194.042969 L 175.289062 201.867188 C 174.542969 202.609375 173.382812 202.746094 172.492188 202.191406 C 167.792969 199.28125 162.699219 197.167969 157.34375 195.910156 C 156.316406 195.675781 155.597656 194.761719 155.597656 193.714844 L 155.597656 182.652344 C 155.597656 180.863281 154.140625 179.40625 152.347656 179.40625 L 138.941406 179.40625 C 137.148438 179.40625 135.691406 180.863281 135.691406 182.652344 L 135.691406 193.714844 C 135.691406 194.761719 134.972656 195.675781 133.945312 195.910156 C 128.59375 197.167969 123.496094 199.28125 118.796875 202.191406 C 117.90625 202.746094 116.742188 202.609375 116 201.867188 L 108.167969 194.042969 C 106.90625 192.777344 104.847656 192.777344 103.578125 194.042969 L 94.097656 203.519531 C 93.488281 204.125 93.152344 204.9375 93.152344 205.808594 C 93.152344 206.675781 93.488281 207.496094 94.097656 208.101562 L 101.929688 215.925781 C 102.671875 216.667969 102.808594 217.824219 102.253906 218.71875 C 99.34375 223.410156 97.226562 228.5 95.972656 233.855469 C 95.730469 234.875 94.816406 235.601562 93.765625 235.601562 L 82.695312 235.601562 C 80.910156 235.601562 79.453125 237.054688 79.453125 238.84375 L 79.453125 252.242188 C 79.453125 254.027344 80.910156 255.480469 82.695312 255.480469 L 93.765625 255.480469 C 94.816406 255.480469 95.730469 256.207031 95.972656 257.230469 C 97.230469 262.585938 99.339844 267.679688 102.253906 272.367188 C 102.808594 273.257812 102.671875 274.414062 101.929688 275.160156 L 94.097656 282.980469 C 93.488281 283.585938 93.152344 284.40625 93.152344 285.273438 C 93.152344 286.144531 93.488281 286.957031 94.097656 287.5625 L 103.578125 297.039062 C 104.1875 297.652344 105 297.980469 105.875 297.980469 C 106.746094 297.980469 107.5625 297.652344 108.167969 297.039062 L 116 289.214844 C 116.4375 288.777344 117.019531 288.554688 117.605469 288.554688 Z M 152.347656 316.199219 L 138.941406 316.199219 C 134.65625 316.199219 131.164062 312.710938 131.164062 308.429688 L 131.164062 299.136719 C 126.546875 297.894531 122.117188 296.054688 117.957031 293.664062 L 111.371094 300.238281 C 109.90625 301.707031 107.957031 302.507812 105.875 302.507812 C 103.792969 302.507812 101.839844 301.707031 100.378906 300.238281 L 90.894531 290.769531 C 89.429688 289.300781 88.621094 287.351562 88.621094 285.273438 C 88.625 283.199219 89.429688 281.246094 90.894531 279.78125 L 97.476562 273.207031 C 95.082031 269.050781 93.246094 264.625 92.003906 260.007812 L 82.695312 260.007812 C 78.410156 260.007812 74.921875 256.523438 74.921875 252.242188 L 74.921875 238.839844 C 74.921875 234.558594 78.410156 231.074219 82.695312 231.074219 L 92.003906 231.074219 C 93.246094 226.457031 95.082031 222.03125 97.480469 217.878906 L 90.894531 211.300781 C 89.429688 209.839844 88.621094 207.890625 88.621094 205.808594 C 88.625 203.730469 89.429688 201.78125 90.894531 200.320312 L 100.378906 190.84375 C 103.410156 187.816406 108.339844 187.816406 111.371094 190.84375 L 117.957031 197.421875 C 122.117188 195.027344 126.546875 193.1875 131.164062 191.945312 L 131.164062 182.652344 C 131.164062 178.371094 134.65625 174.882812 138.941406 174.882812 L 152.347656 174.882812 C 156.636719 174.882812 160.125 178.371094 160.125 182.652344 L 160.128906 191.945312 C 164.746094 193.1875 169.171875 195.027344 173.332031 197.421875 L 179.917969 190.84375 C 182.953125 187.816406 187.882812 187.816406 190.914062 190.84375 L 200.394531 200.320312 C 203.429688 203.347656 203.425781 208.273438 200.394531 211.300781 L 193.8125 217.878906 C 196.210938 222.03125 198.042969 226.457031 199.289062 231.074219 L 208.59375 231.074219 C 212.882812 231.074219 216.367188 234.558594 216.367188 238.839844 L 216.367188 252.242188 C 216.367188 256.523438 212.882812 260.007812 208.59375 260.007812 L 199.289062 260.007812 C 198.042969 264.621094 196.207031 269.046875 193.808594 273.207031 L 200.394531 279.78125 C 203.429688 282.808594 203.425781 287.742188 200.394531 290.769531 L 190.914062 300.238281 C 187.882812 303.265625 182.949219 303.265625 179.917969 300.238281 L 173.335938 293.664062 C 169.179688 296.0625 164.75 297.894531 160.125 299.136719 L 160.128906 308.429688 C 160.128906 312.710938 156.636719 316.199219 152.347656 316.199219 Z M 152.347656 316.199219 " fill-opacity="1" fill-rule="evenodd"/></g><path fill="#ffffff" d="M 145.640625 219.089844 C 131.046875 219.089844 119.167969 230.957031 119.167969 245.542969 C 119.167969 260.128906 131.046875 271.996094 145.640625 271.996094 C 160.246094 271.996094 172.121094 260.128906 172.121094 245.542969 C 172.125 230.957031 160.246094 219.089844 145.640625 219.089844 Z M 145.640625 276.523438 C 128.550781 276.523438 114.636719 262.621094 114.636719 245.542969 C 114.640625 228.460938 128.550781 214.566406 145.640625 214.566406 C 162.746094 214.566406 176.652344 228.460938 176.652344 245.542969 C 176.652344 262.621094 162.746094 276.523438 145.640625 276.523438 Z M 145.640625 276.523438 " fill-opacity="1" fill-rule="evenodd"/><path fill="#ffffff" d="M 196.042969 154.429688 C 196.457031 154.429688 196.867188 154.542969 197.242188 154.773438 C 201.164062 157.207031 205.445312 158.972656 209.957031 160.035156 C 210.984375 160.269531 211.707031 161.183594 211.707031 162.230469 L 211.707031 171.59375 C 211.707031 172.914062 212.78125 173.992188 214.101562 173.992188 L 225.449219 173.992188 C 226.769531 173.992188 227.847656 172.914062 227.847656 171.59375 L 227.851562 162.230469 C 227.851562 161.183594 228.570312 160.269531 229.59375 160.027344 C 234.113281 158.972656 238.390625 157.199219 242.316406 154.773438 C 243.207031 154.21875 244.363281 154.355469 245.105469 155.097656 L 251.730469 161.714844 C 252.667969 162.644531 254.1875 162.644531 255.121094 161.714844 L 263.148438 153.695312 C 264.078125 152.761719 264.078125 151.242188 263.148438 150.304688 L 256.523438 143.695312 C 255.78125 142.953125 255.644531 141.792969 256.199219 140.902344 C 258.636719 136.976562 260.40625 132.699219 261.464844 128.191406 C 261.703125 127.167969 262.617188 126.449219 263.671875 126.449219 L 273.039062 126.449219 C 274.359375 126.449219 275.4375 125.371094 275.4375 124.050781 L 275.4375 112.714844 C 275.4375 111.394531 274.359375 110.320312 273.039062 110.320312 L 263.667969 110.320312 C 262.617188 110.320312 261.703125 109.597656 261.460938 108.570312 C 260.40625 104.058594 258.628906 99.785156 256.199219 95.867188 C 255.644531 94.972656 255.78125 93.816406 256.523438 93.074219 L 263.148438 86.457031 C 264.078125 85.519531 264.078125 84.007812 263.148438 83.070312 L 255.121094 75.054688 C 254.1875 74.121094 252.667969 74.121094 251.730469 75.058594 L 245.105469 81.671875 C 244.363281 82.414062 243.207031 82.546875 242.316406 81.992188 C 238.390625 79.5625 234.113281 77.796875 229.59375 76.734375 C 228.570312 76.496094 227.847656 75.585938 227.847656 74.53125 L 227.851562 65.167969 C 227.851562 63.851562 226.769531 62.777344 225.449219 62.777344 L 214.101562 62.777344 C 212.78125 62.777344 211.707031 63.851562 211.707031 65.167969 L 211.707031 74.53125 C 211.707031 75.585938 210.980469 76.5 209.957031 76.734375 C 205.445312 77.796875 201.167969 79.5625 197.242188 81.996094 C 196.34375 82.550781 195.1875 82.417969 194.445312 81.671875 L 187.824219 75.054688 C 186.882812 74.121094 185.367188 74.121094 184.429688 75.058594 L 176.410156 83.070312 C 175.472656 84.007812 175.472656 85.519531 176.410156 86.457031 L 183.027344 93.074219 C 183.769531 93.816406 183.90625 94.972656 183.351562 95.867188 C 180.914062 99.792969 179.144531 104.0625 178.089844 108.570312 C 177.847656 109.597656 176.933594 110.320312 175.886719 110.320312 L 166.515625 110.320312 C 165.191406 110.320312 164.121094 111.394531 164.121094 112.714844 L 164.121094 124.050781 C 164.121094 125.371094 165.191406 126.449219 166.511719 126.449219 L 175.886719 126.449219 C 176.941406 126.449219 177.847656 127.171875 178.089844 128.191406 C 179.152344 132.707031 180.921875 136.976562 183.351562 140.902344 C 183.90625 141.792969 183.777344 142.945312 183.03125 143.695312 L 176.410156 150.304688 C 175.472656 151.242188 175.472656 152.761719 176.410156 153.695312 L 184.429688 161.714844 C 185.363281 162.644531 186.882812 162.644531 187.820312 161.714844 L 194.445312 155.097656 C 194.882812 154.660156 195.460938 154.429688 196.042969 154.429688 Z M 225.449219 178.519531 L 214.101562 178.519531 C 210.289062 178.519531 207.179688 175.414062 207.179688 171.59375 L 207.179688 163.992188 C 203.40625 162.957031 199.792969 161.464844 196.402344 159.539062 L 191.023438 164.914062 C 188.324219 167.609375 183.929688 167.609375 181.226562 164.914062 L 173.207031 156.894531 C 170.507812 154.195312 170.507812 149.804688 173.207031 147.105469 L 178.585938 141.734375 C 176.65625 138.351562 175.164062 134.738281 174.128906 130.972656 L 166.515625 130.972656 C 162.699219 130.972656 159.589844 127.867188 159.589844 124.050781 L 159.589844 112.714844 C 159.589844 108.902344 162.699219 105.796875 166.511719 105.796875 L 174.128906 105.796875 C 175.160156 102.023438 176.65625 98.417969 178.582031 95.03125 L 173.207031 89.65625 C 170.507812 86.957031 170.507812 82.570312 173.207031 79.871094 L 181.230469 71.855469 C 183.929688 69.160156 188.324219 69.160156 191.023438 71.859375 L 196.402344 77.230469 C 199.796875 75.304688 203.402344 73.8125 207.179688 72.777344 L 207.179688 65.167969 C 207.179688 61.351562 210.285156 58.253906 214.101562 58.253906 L 225.449219 58.253906 C 229.269531 58.253906 232.378906 61.351562 232.378906 65.167969 L 232.378906 72.777344 C 236.148438 73.8125 239.761719 75.304688 243.148438 77.230469 L 248.527344 71.855469 C 251.226562 69.160156 255.628906 69.160156 258.324219 71.859375 L 266.351562 79.871094 C 269.050781 82.570312 269.050781 86.957031 266.347656 89.65625 L 260.972656 95.03125 C 262.894531 98.417969 264.390625 102.023438 265.429688 105.796875 L 273.039062 105.796875 C 276.859375 105.796875 279.96875 108.902344 279.96875 112.714844 L 279.96875 124.050781 C 279.96875 127.867188 276.859375 130.972656 273.039062 130.972656 L 265.429688 130.972656 C 264.390625 134.738281 262.898438 138.34375 260.972656 141.738281 L 266.351562 147.105469 C 269.050781 149.804688 269.050781 154.195312 266.347656 156.894531 L 258.324219 164.914062 C 255.628906 167.609375 251.226562 167.609375 248.527344 164.914062 L 243.148438 159.539062 C 239.761719 161.464844 236.148438 162.957031 232.378906 163.992188 L 232.378906 171.59375 C 232.378906 175.414062 229.269531 178.519531 225.449219 178.519531 Z M 225.449219 178.519531 " fill-opacity="1" fill-rule="evenodd"/><path fill="#ffffff" d="M 219.777344 101.265625 C 215.386719 101.265625 210.992188 102.933594 207.65625 106.273438 C 200.96875 112.949219 200.96875 123.816406 207.65625 130.496094 C 214.339844 137.171875 225.210938 137.171875 231.902344 130.496094 C 238.582031 123.816406 238.582031 112.949219 231.902344 106.273438 C 228.558594 102.933594 224.167969 101.265625 219.777344 101.265625 Z M 219.777344 140.035156 C 213.988281 140.035156 208.546875 137.785156 204.453125 133.695312 C 196 125.253906 196 111.519531 204.453125 103.074219 C 208.546875 98.984375 213.988281 96.726562 219.773438 96.726562 C 225.566406 96.726562 231.011719 98.984375 235.101562 103.074219 L 235.105469 103.074219 C 243.554688 111.519531 243.554688 125.253906 235.101562 133.695312 C 231.011719 137.785156 225.566406 140.035156 219.777344 140.035156 Z M 219.777344 140.035156 " fill-opacity="1" fill-rule="evenodd"/><g clip-path="url(#539610ffd3)"><path fill="#ffffff" d="M 240.171875 231.0625 C 240.777344 231.0625 241.378906 231.304688 241.820312 231.777344 C 243.757812 233.832031 245.992188 235.546875 248.46875 236.878906 C 249.394531 237.375 249.855469 238.441406 249.582031 239.453125 L 248.0625 245.140625 C 247.96875 245.488281 248.183594 245.859375 248.53125 245.953125 L 255.421875 247.796875 C 255.769531 247.890625 256.148438 247.679688 256.242188 247.328125 L 257.761719 241.644531 C 258.035156 240.632812 258.976562 239.949219 260.023438 239.972656 C 262.839844 240.0625 265.628906 239.691406 268.332031 238.878906 C 269.339844 238.570312 270.425781 239 270.949219 239.910156 L 273.894531 245.003906 C 274.011719 245.210938 274.199219 245.289062 274.300781 245.3125 C 274.402344 245.339844 274.601562 245.371094 274.800781 245.253906 L 280.980469 241.6875 C 281.1875 241.570312 281.265625 241.382812 281.289062 241.28125 C 281.320312 241.179688 281.339844 240.980469 281.222656 240.78125 L 278.28125 235.675781 C 277.757812 234.769531 277.925781 233.617188 278.695312 232.898438 C 280.753906 230.964844 282.46875 228.730469 283.796875 226.257812 C 284.296875 225.332031 285.359375 224.867188 286.378906 225.140625 L 292.070312 226.664062 C 292.292969 226.722656 292.484375 226.644531 292.570312 226.59375 C 292.660156 226.539062 292.824219 226.421875 292.882812 226.191406 L 294.730469 219.308594 C 294.824219 218.960938 294.605469 218.585938 294.257812 218.488281 L 288.574219 216.96875 C 287.558594 216.699219 286.863281 215.761719 286.890625 214.714844 C 286.980469 211.902344 286.613281 209.109375 285.792969 206.410156 C 285.492188 205.402344 285.925781 204.320312 286.832031 203.796875 L 291.933594 200.855469 C 292.140625 200.738281 292.21875 200.546875 292.242188 200.449219 C 292.269531 200.347656 292.292969 200.148438 292.175781 199.941406 L 288.613281 193.773438 C 288.433594 193.460938 288.011719 193.347656 287.699219 193.53125 L 282.597656 196.472656 C 281.683594 196.996094 280.535156 196.824219 279.8125 196.058594 C 277.882812 194.003906 275.644531 192.289062 273.167969 190.960938 C 272.242188 190.460938 271.777344 189.394531 272.046875 188.382812 L 273.574219 182.695312 C 273.667969 182.347656 273.449219 181.976562 273.101562 181.882812 L 266.210938 180.039062 C 265.867188 179.949219 265.488281 180.160156 265.394531 180.507812 L 263.875 186.1875 C 263.597656 187.203125 262.675781 187.910156 261.613281 187.867188 C 258.800781 187.773438 256.003906 188.144531 253.304688 188.964844 C 252.289062 189.265625 251.210938 188.839844 250.6875 187.925781 L 247.738281 182.832031 C 247.621094 182.625 247.4375 182.546875 247.335938 182.523438 C 247.234375 182.496094 247.035156 182.472656 246.828125 182.589844 L 240.648438 186.148438 C 240.449219 186.265625 240.371094 186.453125 240.339844 186.554688 C 240.316406 186.65625 240.289062 186.855469 240.40625 187.0625 L 243.355469 192.15625 C 243.878906 193.066406 243.707031 194.21875 242.941406 194.9375 C 240.886719 196.871094 239.167969 199.105469 237.835938 201.578125 C 237.339844 202.503906 236.273438 202.96875 235.257812 202.699219 L 229.566406 201.171875 C 229.226562 201.078125 228.847656 201.296875 228.753906 201.644531 L 226.90625 208.53125 C 226.8125 208.878906 227.023438 209.25 227.378906 209.34375 L 233.0625 210.867188 C 234.078125 211.136719 234.773438 212.074219 234.738281 213.121094 C 234.652344 215.933594 235.019531 218.726562 235.835938 221.425781 C 236.140625 222.433594 235.710938 223.515625 234.804688 224.039062 L 229.703125 226.980469 C 229.496094 227.097656 229.417969 227.289062 229.390625 227.386719 C 229.367188 227.488281 229.335938 227.6875 229.453125 227.894531 L 233.023438 234.0625 C 233.140625 234.269531 233.328125 234.347656 233.429688 234.375 C 233.53125 234.398438 233.730469 234.429688 233.929688 234.3125 L 239.039062 231.363281 C 239.390625 231.164062 239.78125 231.0625 240.171875 231.0625 Z M 255.59375 252.347656 C 255.152344 252.347656 254.695312 252.292969 254.246094 252.167969 L 247.359375 250.324219 C 244.59375 249.582031 242.941406 246.730469 243.683594 243.96875 L 244.757812 239.96875 C 242.976562 238.871094 241.3125 237.59375 239.792969 236.15625 L 236.195312 238.230469 C 235 238.917969 233.601562 239.101562 232.253906 238.742188 C 230.910156 238.382812 229.789062 237.527344 229.101562 236.324219 L 225.53125 230.15625 C 224.101562 227.675781 224.953125 224.496094 227.429688 223.0625 L 231.03125 220.996094 C 230.546875 218.957031 230.269531 216.882812 230.207031 214.789062 L 226.203125 213.71875 C 223.4375 212.976562 221.785156 210.125 222.53125 207.359375 L 224.378906 200.472656 C 225.113281 197.707031 227.972656 196.058594 230.738281 196.800781 L 234.746094 197.878906 C 235.84375 196.09375 237.121094 194.4375 238.558594 192.917969 L 236.484375 189.324219 C 235.792969 188.121094 235.609375 186.726562 235.972656 185.382812 C 236.332031 184.042969 237.1875 182.925781 238.382812 182.230469 L 244.566406 178.664062 C 245.761719 177.976562 247.164062 177.792969 248.503906 178.152344 C 249.847656 178.511719 250.96875 179.371094 251.664062 180.566406 L 253.734375 184.164062 C 255.777344 183.671875 257.855469 183.394531 259.945312 183.34375 L 261.019531 179.335938 C 261.761719 176.574219 264.617188 174.921875 267.382812 175.664062 L 274.277344 177.511719 C 277.042969 178.253906 278.6875 181.105469 277.949219 183.867188 L 276.871094 187.875 C 278.660156 188.96875 280.316406 190.242188 281.835938 191.679688 L 285.4375 189.605469 C 287.917969 188.175781 291.101562 189.03125 292.535156 191.511719 L 296.097656 197.679688 C 296.792969 198.882812 296.976562 200.277344 296.617188 201.621094 C 296.257812 202.957031 295.394531 204.082031 294.199219 204.773438 L 290.609375 206.847656 C 291.089844 208.878906 291.367188 210.960938 291.421875 213.050781 L 295.429688 214.125 C 298.199219 214.859375 299.847656 217.710938 299.105469 220.476562 L 297.261719 227.363281 C 296.902344 228.703125 296.039062 229.816406 294.835938 230.511719 C 293.632812 231.207031 292.230469 231.386719 290.894531 231.035156 L 286.886719 229.960938 C 285.789062 231.742188 284.515625 233.402344 283.074219 234.921875 L 285.152344 238.519531 C 285.84375 239.714844 286.023438 241.109375 285.664062 242.453125 C 285.304688 243.796875 284.445312 244.917969 283.246094 245.605469 L 277.066406 249.171875 C 275.871094 249.859375 274.472656 250.042969 273.125 249.683594 C 271.78125 249.324219 270.660156 248.46875 269.972656 247.265625 L 267.894531 243.679688 C 265.855469 244.164062 263.777344 244.4375 261.683594 244.5 L 260.613281 248.5 C 259.992188 250.816406 257.886719 252.347656 255.59375 252.347656 Z M 255.59375 252.347656 " fill-opacity="1" fill-rule="evenodd"/></g><path fill="#ffffff" d="M 260.800781 203.984375 C 259.078125 203.984375 257.378906 204.4375 255.847656 205.320312 C 253.546875 206.648438 251.90625 208.785156 251.21875 211.347656 C 249.800781 216.632812 252.949219 222.089844 258.246094 223.511719 C 260.8125 224.195312 263.488281 223.847656 265.785156 222.515625 C 268.085938 221.1875 269.730469 219.050781 270.414062 216.488281 C 271.105469 213.929688 270.75 211.25 269.421875 208.957031 C 268.097656 206.660156 265.957031 205.015625 263.390625 204.332031 C 262.535156 204.101562 261.660156 203.984375 260.800781 203.984375 Z M 260.839844 228.378906 C 259.585938 228.378906 258.316406 228.210938 257.074219 227.882812 C 249.367188 225.8125 244.777344 217.878906 246.839844 210.175781 C 247.84375 206.445312 250.238281 203.328125 253.582031 201.402344 C 256.933594 199.46875 260.828125 198.957031 264.5625 199.960938 C 268.296875 200.953125 271.417969 203.347656 273.34375 206.695312 C 275.277344 210.035156 275.792969 213.929688 274.789062 217.660156 C 273.792969 221.390625 271.398438 224.507812 268.046875 226.4375 C 265.820312 227.722656 263.347656 228.378906 260.839844 228.378906 Z M 260.839844 228.378906 " fill-opacity="1" fill-rule="evenodd"/></svg>