<svg xmlns="http://www.w3.org/2000/svg" xmlns:xlink="http://www.w3.org/1999/xlink" width="500" zoomAndPan="magnify" viewBox="0 0 375 374.999991" height="500" preserveAspectRatio="xMidYMid meet" version="1.0"><defs><g/></defs><rect x="-37.5" width="450" fill="#ffffff" y="-37.499999" height="449.999989" fill-opacity="1"/><rect x="-37.5" width="450" fill="#ffffff" y="-37.499999" height="449.999989" fill-opacity="1"/><rect x="-37.5" width="450" fill="#004aad" y="-37.499999" height="449.999989" fill-opacity="1"/><g fill="#ffffff" fill-opacity="1"><g transform="translate(66.69255, 300.008025)"><g><path d="M 104.390625 -19.203125 C 115.328125 -19.203125 125.332031 -21.296875 134.40625 -25.484375 C 143.488281 -29.671875 151.226562 -35.78125 157.625 -43.8125 C 164.03125 -51.84375 168.976562 -61.789062 172.46875 -73.65625 C 175.957031 -85.53125 177.703125 -99.148438 177.703125 -114.515625 C 177.703125 -129.878906 175.957031 -143.492188 172.46875 -155.359375 C 168.976562 -167.234375 163.972656 -177.179688 157.453125 -185.203125 C 150.941406 -193.234375 143.203125 -199.285156 134.234375 -203.359375 C 125.273438 -207.429688 115.210938 -209.46875 104.046875 -209.46875 L 91.8125 -209.46875 C 91.351562 -194.8125 91.125 -180.09375 91.125 -165.3125 C 91.125 -150.53125 91.125 -135.578125 91.125 -120.453125 L 91.125 -111.71875 C 91.125 -95.425781 91.125 -79.65625 91.125 -64.40625 C 91.125 -49.164062 91.351562 -34.097656 91.8125 -19.203125 Z M 116.609375 -228.671875 C 133.597656 -228.671875 149.132812 -226.226562 163.21875 -221.34375 C 177.300781 -216.457031 189.40625 -209.179688 199.53125 -199.515625 C 209.65625 -189.859375 217.453125 -178.046875 222.921875 -164.078125 C 228.390625 -150.117188 231.125 -134.0625 231.125 -115.90625 C 231.125 -97.050781 228.097656 -80.410156 222.046875 -65.984375 C 215.992188 -51.554688 207.554688 -39.453125 196.734375 -29.671875 C 185.910156 -19.898438 173.050781 -12.507812 158.15625 -7.5 C 143.257812 -2.5 127.082031 0 109.625 0 L 11.171875 0 L 11.171875 -17.453125 L 39.453125 -20.59375 C 39.921875 -35.03125 40.15625 -49.753906 40.15625 -64.765625 C 40.15625 -79.773438 40.15625 -95.425781 40.15625 -111.71875 L 40.15625 -120.453125 C 40.15625 -135.109375 40.15625 -149.707031 40.15625 -164.25 C 40.15625 -178.800781 39.921875 -193.410156 39.453125 -208.078125 L 11.171875 -211.21875 L 11.171875 -228.671875 Z M 116.609375 -228.671875 "/></g></g></g></svg>