<svg xmlns="http://www.w3.org/2000/svg" xmlns:xlink="http://www.w3.org/1999/xlink" width="235" zoomAndPan="magnify" viewBox="0 0 176.25 44.999999" height="60" preserveAspectRatio="xMidYMid meet" version="1.0"><defs><g/><clipPath id="76d47c245b"><path d="M 0 0.09375 L 175.503906 0.09375 L 175.503906 44.902344 L 0 44.902344 Z M 0 0.09375 " clip-rule="nonzero"/></clipPath></defs><g clip-path="url(#76d47c245b)"><path fill="#ffffff" d="M 0 0.09375 L 176.25 0.09375 L 176.25 52.371094 L 0 52.371094 Z M 0 0.09375 " fill-opacity="1" fill-rule="nonzero"/><path fill="#ffffff" d="M 0 0.09375 L 175.503906 0.09375 L 175.503906 44.90625 L 0 44.90625 Z M 0 0.09375 " fill-opacity="1" fill-rule="nonzero"/><path fill="#bb1b29" d="M 0 0.09375 L 175.503906 0.09375 L 175.503906 44.90625 L 0 44.90625 Z M 0 0.09375 " fill-opacity="1" fill-rule="nonzero"/></g><g fill="#ffffff" fill-opacity="1"><g transform="translate(1.573601, 33.868061)"><g><path d="M 1.988281 0 L 8.871094 0 L 8.871094 -25.339844 L 1.988281 -25.339844 Z M 1.988281 0 "/></g></g></g><g fill="#ffffff" fill-opacity="1"><g transform="translate(12.397089, 33.868061)"><g><path d="M 1.988281 0 L 8.339844 0 L 8.339844 -16.503906 L 8.660156 -16.503906 L 17.957031 0 L 25.128906 0 L 25.128906 -25.339844 L 18.738281 -25.339844 L 18.738281 -8.765625 L 18.417969 -8.765625 L 9.121094 -25.339844 L 1.988281 -25.339844 Z M 1.988281 0 "/></g></g></g><g fill="#ffffff" fill-opacity="1"><g transform="translate(39.509027, 33.868061)"><g><path d="M 0.285156 0 L 7.417969 0 L 8.765625 -4.222656 L 18.136719 -4.222656 L 19.484375 0 L 26.617188 0 L 18.527344 -25.339844 L 8.375 -25.339844 Z M 10.078125 -9.085938 L 13.273438 -19.519531 L 13.59375 -19.519531 L 16.824219 -9.085938 Z M 10.078125 -9.085938 "/></g></g></g><g fill="#ffffff" fill-opacity="1"><g transform="translate(66.408046, 33.868061)"><g><path d="M 12.632812 0.53125 C 19.625 0.53125 24.3125 -2.660156 24.3125 -7.628906 C 24.3125 -13.628906 18.492188 -14.480469 14.160156 -15.117188 C 11.039062 -15.542969 8.304688 -15.933594 8.304688 -18.136719 C 8.304688 -19.804688 9.972656 -21.011719 12.597656 -21.011719 C 15.402344 -21.011719 17.285156 -19.554688 17.285156 -17.105469 L 23.460938 -17.105469 C 23.421875 -22.289062 18.988281 -25.871094 12.351562 -25.871094 C 5.820312 -25.871094 1.457031 -22.570312 1.457031 -17.601562 C 1.457031 -11.25 7.914062 -10.789062 12.28125 -10.148438 C 15.082031 -9.761719 17.460938 -9.335938 17.460938 -7.238281 C 17.460938 -5.429688 15.652344 -4.328125 12.917969 -4.328125 C 9.652344 -4.328125 7.703125 -5.925781 7.703125 -8.304688 L 1.277344 -8.304688 C 1.277344 -3.125 5.855469 0.53125 12.632812 0.53125 Z M 12.632812 0.53125 "/></g></g></g><g fill="#ffffff" fill-opacity="1"><g transform="translate(91.994057, 33.868061)"><g><path d="M 8.554688 0 L 15.402344 0 L 15.402344 -19.734375 L 23.496094 -19.734375 L 23.496094 -25.339844 L 0.460938 -25.339844 L 0.460938 -19.734375 L 8.554688 -19.734375 Z M 8.554688 0 "/></g></g></g><g fill="#ffffff" fill-opacity="1"><g transform="translate(115.94767, 33.868061)"><g><path d="M 1.988281 0 L 21.753906 0 L 21.753906 -5.359375 L 8.589844 -5.359375 L 8.589844 -10.648438 L 20.726562 -10.648438 L 20.726562 -15.011719 L 8.589844 -15.011719 L 8.589844 -19.980469 L 21.402344 -19.980469 L 21.402344 -25.339844 L 1.988281 -25.339844 Z M 1.988281 0 "/></g></g></g><g fill="#ffffff" fill-opacity="1"><g transform="translate(138.730214, 33.868061)"><g><path d="M 1.988281 0 L 8.589844 0 L 8.589844 -15.972656 L 8.90625 -15.972656 L 14.941406 0 L 20.230469 0 L 26.261719 -16.007812 L 26.582031 -16.007812 L 26.582031 0 L 33.183594 0 L 33.183594 -25.339844 L 24.0625 -25.339844 L 17.746094 -8.019531 L 17.425781 -8.019531 L 10.929688 -25.339844 L 1.988281 -25.339844 Z M 1.988281 0 "/></g></g></g></svg>