<svg xmlns="http://www.w3.org/2000/svg" xmlns:xlink="http://www.w3.org/1999/xlink" width="300" zoomAndPan="magnify" viewBox="0 0 224.87999 52.499999" height="70" preserveAspectRatio="xMidYMid meet" version="1.0"><defs><g/><clipPath id="d803865d30"><path d="M 1 0 L 223.761719 0 L 223.761719 52.003906 L 1 52.003906 Z M 1 0 " clip-rule="nonzero"/></clipPath></defs><g clip-path="url(#d803865d30)"><path fill="#ffffff" d="M 1 0 L 223.878906 0 L 223.878906 59.433594 L 1 59.433594 Z M 1 0 " fill-opacity="1" fill-rule="nonzero"/><path fill="#ffffff" d="M 1 0 L 223.878906 0 L 223.878906 52.003906 L 1 52.003906 Z M 1 0 " fill-opacity="1" fill-rule="nonzero"/><path fill="#004aad" d="M 1 0 L 223.878906 0 L 223.878906 52.003906 L 1 52.003906 Z M 1 0 " fill-opacity="1" fill-rule="nonzero"/></g><g fill="#ffffff" fill-opacity="1"><g transform="translate(6.90664, 38.040408)"><g><path d="M 13.265625 -1.9375 C 14.691406 -1.9375 15.984375 -2.1875 17.140625 -2.6875 C 18.304688 -3.195312 19.300781 -3.953125 20.125 -4.953125 C 20.945312 -5.953125 21.582031 -7.179688 22.03125 -8.640625 C 22.476562 -10.109375 22.703125 -11.800781 22.703125 -13.71875 C 22.703125 -15.632812 22.476562 -17.332031 22.03125 -18.8125 C 21.582031 -20.289062 20.9375 -21.523438 20.09375 -22.515625 C 19.257812 -23.515625 18.257812 -24.269531 17.09375 -24.78125 C 15.9375 -25.289062 14.644531 -25.546875 13.21875 -25.546875 L 9.609375 -25.546875 C 9.554688 -23.765625 9.53125 -21.976562 9.53125 -20.1875 C 9.53125 -18.394531 9.53125 -16.578125 9.53125 -14.734375 L 9.53125 -13.21875 C 9.53125 -11.195312 9.53125 -9.257812 9.53125 -7.40625 C 9.53125 -5.5625 9.554688 -3.738281 9.609375 -1.9375 Z M 13.96875 -27.46875 C 15.851562 -27.46875 17.601562 -27.164062 19.21875 -26.5625 C 20.832031 -25.96875 22.226562 -25.09375 23.40625 -23.9375 C 24.582031 -22.789062 25.503906 -21.359375 26.171875 -19.640625 C 26.847656 -17.929688 27.1875 -15.96875 27.1875 -13.75 C 27.1875 -11.539062 26.816406 -9.578125 26.078125 -7.859375 C 25.335938 -6.148438 24.328125 -4.710938 23.046875 -3.546875 C 21.773438 -2.390625 20.285156 -1.507812 18.578125 -0.90625 C 16.867188 -0.300781 15.054688 0 13.140625 0 L 1.8125 0 L 1.8125 -1.6875 L 5.578125 -2.140625 C 5.640625 -3.890625 5.671875 -5.671875 5.671875 -7.484375 C 5.671875 -9.304688 5.671875 -11.21875 5.671875 -13.21875 L 5.671875 -14.734375 C 5.671875 -16.515625 5.671875 -18.28125 5.671875 -20.03125 C 5.671875 -21.789062 5.640625 -23.554688 5.578125 -25.328125 L 1.8125 -25.78125 L 1.8125 -27.46875 Z M 13.96875 -27.46875 "/></g></g></g><g fill="#ffffff" fill-opacity="1"><g transform="translate(36.020987, 38.040408)"><g><path d="M 28.53125 -25.78125 L 24.96875 -25.296875 L 24.96875 -11.25 C 24.96875 -9.082031 24.71875 -7.242188 24.21875 -5.734375 C 23.726562 -4.234375 23.035156 -3.007812 22.140625 -2.0625 C 21.253906 -1.125 20.21875 -0.441406 19.03125 -0.015625 C 17.84375 0.398438 16.550781 0.609375 15.15625 0.609375 C 13.644531 0.609375 12.273438 0.398438 11.046875 -0.015625 C 9.816406 -0.441406 8.753906 -1.097656 7.859375 -1.984375 C 6.972656 -2.878906 6.289062 -4.015625 5.8125 -5.390625 C 5.332031 -6.773438 5.09375 -8.425781 5.09375 -10.34375 L 5.09375 -14.734375 C 5.09375 -16.515625 5.09375 -18.285156 5.09375 -20.046875 C 5.09375 -21.816406 5.066406 -23.59375 5.015625 -25.375 L 1.59375 -25.78125 L 1.59375 -27.46875 L 13.21875 -27.46875 L 13.21875 -25.78125 L 9.078125 -25.296875 C 9.023438 -23.566406 9 -21.828125 9 -20.078125 C 9 -18.328125 9 -16.546875 9 -14.734375 L 9 -11.53125 C 9 -9.78125 9.15625 -8.316406 9.46875 -7.140625 C 9.78125 -5.960938 10.226562 -5.007812 10.8125 -4.28125 C 11.40625 -3.5625 12.125 -3.050781 12.96875 -2.75 C 13.820312 -2.445312 14.769531 -2.296875 15.8125 -2.296875 C 16.988281 -2.296875 18.015625 -2.472656 18.890625 -2.828125 C 19.765625 -3.179688 20.492188 -3.75 21.078125 -4.53125 C 21.671875 -5.3125 22.117188 -6.332031 22.421875 -7.59375 C 22.722656 -8.851562 22.875 -10.398438 22.875 -12.234375 L 22.875 -25.21875 L 18.6875 -25.78125 L 18.6875 -27.46875 L 28.53125 -27.46875 Z M 28.53125 -25.78125 "/></g></g></g><g fill="#ffffff" fill-opacity="1"><g transform="translate(65.956613, 38.040408)"><g><path d="M 28.65625 -25.78125 L 25.171875 -25.25 L 25.171875 0.40625 L 23.78125 0.40625 L 7.1875 -22.09375 L 7.1875 -2.265625 L 11.53125 -1.6875 L 11.53125 0 L 1.59375 0 L 1.59375 -1.6875 L 5.140625 -2.171875 L 5.140625 -24.890625 L 4.71875 -25.421875 L 1.8125 -25.78125 L 1.8125 -27.46875 L 8.125 -27.46875 L 23.078125 -7.109375 L 23.078125 -25.25 L 18.71875 -25.78125 L 18.71875 -27.46875 L 28.65625 -27.46875 Z M 28.65625 -25.78125 "/></g></g></g><g fill="#ffffff" fill-opacity="1"><g transform="translate(96.220748, 38.040408)"><g><path d="M 27.34375 -11.375 L 24.84375 -11.125 C 24.8125 -9.894531 24.789062 -8.65625 24.78125 -7.40625 C 24.769531 -6.164062 24.765625 -4.898438 24.765625 -3.609375 L 24.765625 -1.8125 C 23.335938 -1.070312 21.90625 -0.484375 20.46875 -0.046875 C 19.03125 0.390625 17.453125 0.609375 15.734375 0.609375 C 13.671875 0.609375 11.789062 0.25 10.09375 -0.46875 C 8.40625 -1.195312 6.957031 -2.195312 5.75 -3.46875 C 4.539062 -4.738281 3.601562 -6.25 2.9375 -8 C 2.269531 -9.757812 1.9375 -11.664062 1.9375 -13.71875 C 1.9375 -15.769531 2.269531 -17.675781 2.9375 -19.4375 C 3.601562 -21.207031 4.550781 -22.726562 5.78125 -24 C 7.019531 -25.269531 8.492188 -26.269531 10.203125 -27 C 11.910156 -27.726562 13.820312 -28.09375 15.9375 -28.09375 C 17.601562 -28.09375 19.09375 -27.929688 20.40625 -27.609375 C 21.71875 -27.296875 22.976562 -26.796875 24.1875 -26.109375 L 24.34375 -20.15625 L 21.765625 -20.15625 L 20.9375 -24.921875 C 20.195312 -25.304688 19.441406 -25.582031 18.671875 -25.75 C 17.910156 -25.914062 17.109375 -26 16.265625 -26 C 14.835938 -26 13.519531 -25.722656 12.3125 -25.171875 C 11.113281 -24.617188 10.066406 -23.820312 9.171875 -22.78125 C 8.285156 -21.75 7.59375 -20.472656 7.09375 -18.953125 C 6.601562 -17.429688 6.359375 -15.6875 6.359375 -13.71875 C 6.359375 -9.800781 7.257812 -6.78125 9.0625 -4.65625 C 10.875 -2.539062 13.367188 -1.484375 16.546875 -1.484375 C 18.078125 -1.484375 19.53125 -1.753906 20.90625 -2.296875 L 20.90625 -3.609375 C 20.90625 -4.847656 20.894531 -6.082031 20.875 -7.3125 C 20.863281 -8.539062 20.84375 -9.769531 20.8125 -11 L 16.59375 -11.375 L 16.59375 -13.015625 L 27.34375 -13.015625 Z M 27.34375 -11.375 "/></g></g></g><g fill="#ffffff" fill-opacity="1"><g transform="translate(124.185298, 38.040408)"><g><path d="M 22.703125 -7.71875 L 22.296875 0 L 1.8125 0 L 1.8125 -1.6875 L 5.578125 -2.140625 C 5.640625 -3.910156 5.671875 -5.671875 5.671875 -7.421875 C 5.671875 -9.179688 5.671875 -10.953125 5.671875 -12.734375 L 5.671875 -14.734375 C 5.671875 -16.546875 5.671875 -18.332031 5.671875 -20.09375 C 5.671875 -21.863281 5.640625 -23.609375 5.578125 -25.328125 L 1.8125 -25.78125 L 1.8125 -27.46875 L 13.421875 -27.46875 L 13.421875 -25.78125 L 9.609375 -25.328125 C 9.554688 -23.554688 9.53125 -21.789062 9.53125 -20.03125 C 9.53125 -18.28125 9.53125 -16.515625 9.53125 -14.734375 L 9.53125 -12.734375 C 9.53125 -10.921875 9.53125 -9.125 9.53125 -7.34375 C 9.53125 -5.570312 9.554688 -3.804688 9.609375 -2.046875 L 18.96875 -2.046875 L 20.15625 -7.71875 Z M 22.703125 -7.71875 "/></g></g></g><g fill="#ffffff" fill-opacity="1"><g transform="translate(148.659416, 38.040408)"><g><path d="M 16.75 -10.875 L 12.734375 -22.75 L 8.625 -10.875 Z M 26.859375 -1.6875 L 26.859375 0 L 15.6875 0 L 15.6875 -1.6875 L 19.703125 -2.171875 L 17.40625 -8.953125 L 7.96875 -8.953125 L 5.671875 -2.21875 L 9.65625 -1.6875 L 9.65625 0 L 0.203125 0 L 0.203125 -1.6875 L 3.703125 -2.21875 L 12.484375 -27.46875 L 14.953125 -27.46875 L 23.78125 -2.046875 Z M 26.859375 -1.6875 "/></g></g></g><g fill="#ffffff" fill-opacity="1"><g transform="translate(175.925891, 38.040408)"><g><path d="M 11.90625 -15.484375 C 13.28125 -14.960938 14.441406 -14.410156 15.390625 -13.828125 C 16.347656 -13.253906 17.117188 -12.640625 17.703125 -11.984375 C 18.296875 -11.328125 18.726562 -10.613281 19 -9.84375 C 19.28125 -9.082031 19.421875 -8.238281 19.421875 -7.3125 C 19.421875 -6.082031 19.179688 -4.976562 18.703125 -4 C 18.222656 -3.03125 17.550781 -2.203125 16.6875 -1.515625 C 15.832031 -0.835938 14.800781 -0.316406 13.59375 0.046875 C 12.382812 0.421875 11.070312 0.609375 9.65625 0.609375 C 8.09375 0.609375 6.601562 0.398438 5.1875 -0.015625 C 3.78125 -0.441406 2.597656 -0.957031 1.640625 -1.5625 L 1.890625 -7.3125 L 4.390625 -7.3125 L 5.21875 -2.546875 C 5.875 -2.160156 6.535156 -1.878906 7.203125 -1.703125 C 7.878906 -1.523438 8.65625 -1.4375 9.53125 -1.4375 C 11.46875 -1.4375 13.019531 -1.875 14.1875 -2.75 C 15.351562 -3.625 15.9375 -4.867188 15.9375 -6.484375 C 15.9375 -7.117188 15.832031 -7.675781 15.625 -8.15625 C 15.414062 -8.632812 15.101562 -9.0625 14.6875 -9.4375 C 14.28125 -9.820312 13.753906 -10.175781 13.109375 -10.5 C 12.472656 -10.832031 11.71875 -11.164062 10.84375 -11.5 L 9.234375 -12.109375 C 8.171875 -12.523438 7.207031 -12.992188 6.34375 -13.515625 C 5.476562 -14.035156 4.726562 -14.628906 4.09375 -15.296875 C 3.46875 -15.960938 2.984375 -16.707031 2.640625 -17.53125 C 2.304688 -18.351562 2.140625 -19.285156 2.140625 -20.328125 C 2.140625 -21.503906 2.367188 -22.570312 2.828125 -23.53125 C 3.296875 -24.488281 3.941406 -25.304688 4.765625 -25.984375 C 5.585938 -26.671875 6.566406 -27.191406 7.703125 -27.546875 C 8.835938 -27.910156 10.0625 -28.09375 11.375 -28.09375 C 12.769531 -28.09375 14.023438 -27.890625 15.140625 -27.484375 C 16.265625 -27.085938 17.269531 -26.5625 18.15625 -25.90625 L 17.90625 -20.53125 L 15.359375 -20.53125 L 14.5 -25.21875 C 13.457031 -25.738281 12.347656 -26 11.171875 -26 C 9.578125 -26 8.242188 -25.597656 7.171875 -24.796875 C 6.109375 -24.003906 5.578125 -22.816406 5.578125 -21.234375 C 5.578125 -19.921875 5.976562 -18.878906 6.78125 -18.109375 C 7.59375 -17.335938 8.753906 -16.664062 10.265625 -16.09375 Z M 11.90625 -15.484375 "/></g></g></g><g fill="#ffffff" fill-opacity="1"><g transform="translate(196.950636, 38.040408)"><g><path d="M 11.90625 -15.484375 C 13.28125 -14.960938 14.441406 -14.410156 15.390625 -13.828125 C 16.347656 -13.253906 17.117188 -12.640625 17.703125 -11.984375 C 18.296875 -11.328125 18.726562 -10.613281 19 -9.84375 C 19.28125 -9.082031 19.421875 -8.238281 19.421875 -7.3125 C 19.421875 -6.082031 19.179688 -4.976562 18.703125 -4 C 18.222656 -3.03125 17.550781 -2.203125 16.6875 -1.515625 C 15.832031 -0.835938 14.800781 -0.316406 13.59375 0.046875 C 12.382812 0.421875 11.070312 0.609375 9.65625 0.609375 C 8.09375 0.609375 6.601562 0.398438 5.1875 -0.015625 C 3.78125 -0.441406 2.597656 -0.957031 1.640625 -1.5625 L 1.890625 -7.3125 L 4.390625 -7.3125 L 5.21875 -2.546875 C 5.875 -2.160156 6.535156 -1.878906 7.203125 -1.703125 C 7.878906 -1.523438 8.65625 -1.4375 9.53125 -1.4375 C 11.46875 -1.4375 13.019531 -1.875 14.1875 -2.75 C 15.351562 -3.625 15.9375 -4.867188 15.9375 -6.484375 C 15.9375 -7.117188 15.832031 -7.675781 15.625 -8.15625 C 15.414062 -8.632812 15.101562 -9.0625 14.6875 -9.4375 C 14.28125 -9.820312 13.753906 -10.175781 13.109375 -10.5 C 12.472656 -10.832031 11.71875 -11.164062 10.84375 -11.5 L 9.234375 -12.109375 C 8.171875 -12.523438 7.207031 -12.992188 6.34375 -13.515625 C 5.476562 -14.035156 4.726562 -14.628906 4.09375 -15.296875 C 3.46875 -15.960938 2.984375 -16.707031 2.640625 -17.53125 C 2.304688 -18.351562 2.140625 -19.285156 2.140625 -20.328125 C 2.140625 -21.503906 2.367188 -22.570312 2.828125 -23.53125 C 3.296875 -24.488281 3.941406 -25.304688 4.765625 -25.984375 C 5.585938 -26.671875 6.566406 -27.191406 7.703125 -27.546875 C 8.835938 -27.910156 10.0625 -28.09375 11.375 -28.09375 C 12.769531 -28.09375 14.023438 -27.890625 15.140625 -27.484375 C 16.265625 -27.085938 17.269531 -26.5625 18.15625 -25.90625 L 17.90625 -20.53125 L 15.359375 -20.53125 L 14.5 -25.21875 C 13.457031 -25.738281 12.347656 -26 11.171875 -26 C 9.578125 -26 8.242188 -25.597656 7.171875 -24.796875 C 6.109375 -24.003906 5.578125 -22.816406 5.578125 -21.234375 C 5.578125 -19.921875 5.976562 -18.878906 6.78125 -18.109375 C 7.59375 -17.335938 8.753906 -16.664062 10.265625 -16.09375 Z M 11.90625 -15.484375 "/></g></g></g></svg>