<svg xmlns="http://www.w3.org/2000/svg" xmlns:xlink="http://www.w3.org/1999/xlink" width="500" zoomAndPan="magnify" viewBox="0 0 375 374.999991" height="500" preserveAspectRatio="xMidYMid meet" version="1.0"><defs><clipPath id="e08c16f5d5"><path d="M 85.988281 85.988281 L 289.238281 85.988281 L 289.238281 289.238281 L 85.988281 289.238281 Z M 85.988281 85.988281 " clip-rule="nonzero"/></clipPath></defs><rect x="-37.5" width="450" fill="#ffffff" y="-37.499999" height="449.999989" fill-opacity="1"/><rect x="-37.5" width="450" fill="#004aad" y="-37.499999" height="449.999989" fill-opacity="1"/><g clip-path="url(#e08c16f5d5)"><path fill="#ffffff" d="M 285.003906 289.238281 L 90.222656 289.238281 C 87.886719 289.238281 85.988281 287.34375 85.988281 285.003906 L 85.988281 90.222656 C 85.988281 87.886719 87.886719 85.988281 90.222656 85.988281 L 285.003906 85.988281 C 287.34375 85.988281 289.238281 87.886719 289.238281 90.222656 L 289.238281 285.003906 C 289.238281 287.34375 287.34375 289.238281 285.003906 289.238281 Z M 94.457031 280.769531 L 280.769531 280.769531 L 280.769531 94.457031 L 94.457031 94.457031 Z M 94.457031 280.769531 " fill-opacity="1" fill-rule="nonzero"/></g><path fill="#ffffff" d="M 141.035156 263.832031 L 115.628906 263.832031 C 113.292969 263.832031 111.394531 261.9375 111.394531 259.597656 L 111.394531 234.191406 C 111.394531 231.855469 113.292969 229.957031 115.628906 229.957031 C 117.96875 229.957031 119.863281 231.855469 119.863281 234.191406 L 119.863281 255.363281 L 141.035156 255.363281 C 143.375 255.363281 145.269531 257.261719 145.269531 259.597656 C 145.269531 261.9375 143.375 263.832031 141.035156 263.832031 Z M 141.035156 263.832031 " fill-opacity="1" fill-rule="nonzero"/><path fill="#ffffff" d="M 259.597656 145.269531 C 257.261719 145.269531 255.363281 143.375 255.363281 141.035156 L 255.363281 119.863281 L 234.191406 119.863281 C 231.855469 119.863281 229.957031 117.96875 229.957031 115.628906 C 229.957031 113.292969 231.855469 111.394531 234.191406 111.394531 L 259.597656 111.394531 C 261.9375 111.394531 263.832031 113.292969 263.832031 115.628906 L 263.832031 141.035156 C 263.832031 143.375 261.9375 145.269531 259.597656 145.269531 Z M 259.597656 145.269531 " fill-opacity="1" fill-rule="nonzero"/><path fill="#ffffff" d="M 115.628906 263.832031 C 114.546875 263.832031 113.460938 263.417969 112.632812 262.597656 C 110.980469 260.945312 110.980469 258.261719 112.632812 256.609375 L 256.601562 112.640625 C 258.253906 110.988281 260.9375 110.988281 262.589844 112.640625 C 264.238281 114.292969 264.238281 116.976562 262.589844 118.628906 L 118.621094 262.597656 C 117.796875 263.417969 116.714844 263.832031 115.628906 263.832031 Z M 115.628906 263.832031 " fill-opacity="1" fill-rule="nonzero"/></svg>