<svg xmlns="http://www.w3.org/2000/svg" xmlns:xlink="http://www.w3.org/1999/xlink" width="500" zoomAndPan="magnify" viewBox="0 0 375 374.999991" height="500" preserveAspectRatio="xMidYMid meet" version="1.0"><defs><clipPath id="22d4cb5166"><path d="M 216 103 L 300.839844 103 L 300.839844 214 L 216 214 Z M 216 103 " clip-rule="nonzero"/></clipPath><clipPath id="d913c97e1f"><path d="M 74.339844 156 L 159 156 L 159 267 L 74.339844 267 Z M 74.339844 156 " clip-rule="nonzero"/></clipPath><clipPath id="69baabc546"><path d="M 165 237 L 276 237 L 276 309.242188 L 165 309.242188 Z M 165 237 " clip-rule="nonzero"/></clipPath><clipPath id="ef091868c0"><path d="M 102 65.492188 L 206 65.492188 L 206 138 L 102 138 Z M 102 65.492188 " clip-rule="nonzero"/></clipPath></defs><rect x="-37.5" width="450" fill="#ffffff" y="-37.499999" height="449.999989" fill-opacity="1"/><rect x="-37.5" width="450" fill="#bb1b29" y="-37.499999" height="449.999989" fill-opacity="1"/><g clip-path="url(#22d4cb5166)"><path fill="#ffffff" d="M 216.332031 204.207031 C 216.332031 209.355469 220.527344 213.539062 225.683594 213.539062 L 291.503906 213.539062 C 296.660156 213.539062 300.855469 209.355469 300.855469 204.207031 C 300.855469 186.921875 290.375 172.050781 275.433594 165.542969 C 285.320312 159.746094 291.992188 149.046875 291.992188 136.800781 C 291.992188 118.417969 277.007812 103.464844 258.59375 103.464844 C 240.175781 103.464844 225.195312 118.417969 225.195312 136.800781 C 225.195312 149.050781 231.867188 159.746094 241.753906 165.542969 C 226.8125 172.050781 216.332031 186.921875 216.332031 204.207031 Z M 233.320312 136.800781 C 233.320312 122.890625 244.65625 111.574219 258.59375 111.574219 C 272.527344 111.574219 283.863281 122.890625 283.863281 136.800781 C 283.863281 150.710938 272.527344 162.023438 258.59375 162.023438 C 244.65625 162.027344 233.320312 150.710938 233.320312 136.800781 Z M 258.59375 170.136719 C 277.414062 170.136719 292.726562 185.421875 292.726562 204.207031 C 292.726562 204.882812 292.179688 205.429688 291.503906 205.429688 L 225.683594 205.429688 C 225.007812 205.429688 224.457031 204.882812 224.457031 204.207031 C 224.457031 185.421875 239.769531 170.136719 258.59375 170.136719 Z M 258.59375 170.136719 " fill-opacity="1" fill-rule="nonzero"/></g><g clip-path="url(#d913c97e1f)"><path fill="#ffffff" d="M 74.34375 257.316406 C 74.34375 262.460938 78.535156 266.652344 83.691406 266.652344 L 149.515625 266.652344 C 154.671875 266.652344 158.863281 262.460938 158.863281 257.316406 C 158.863281 240.03125 148.386719 225.160156 133.445312 218.648438 C 143.332031 212.855469 150.003906 202.160156 150.003906 189.910156 C 150.003906 171.527344 135.019531 156.574219 116.601562 156.574219 C 98.1875 156.574219 83.203125 171.527344 83.203125 189.910156 C 83.203125 202.15625 89.875 212.855469 99.761719 218.648438 C 84.820312 225.160156 74.34375 240.03125 74.34375 257.316406 Z M 91.332031 189.910156 C 91.332031 176 102.667969 164.683594 116.601562 164.683594 C 130.539062 164.683594 141.875 176 141.875 189.910156 C 141.875 203.820312 130.539062 215.132812 116.601562 215.132812 C 102.667969 215.132812 91.332031 203.820312 91.332031 189.910156 Z M 116.601562 223.246094 C 135.425781 223.246094 150.738281 238.53125 150.738281 257.316406 C 150.738281 257.992188 150.191406 258.539062 149.515625 258.539062 L 83.691406 258.539062 C 83.019531 258.539062 82.46875 257.992188 82.46875 257.316406 C 82.46875 238.53125 97.78125 223.246094 116.601562 223.246094 Z M 116.601562 223.246094 " fill-opacity="1" fill-rule="nonzero"/></g><g clip-path="url(#69baabc546)"><path fill="#ffffff" d="M 179.871094 281.941406 L 193.488281 272.359375 C 195.324219 271.066406 195.761719 268.535156 194.46875 266.707031 C 193.175781 264.875 190.644531 264.433594 188.804688 265.726562 L 166.878906 281.160156 C 165.882812 281.863281 165.253906 282.972656 165.167969 284.1875 C 165.078125 285.398438 165.542969 286.585938 166.425781 287.421875 L 188.351562 308.132812 C 189.140625 308.875 190.144531 309.242188 191.144531 309.242188 C 192.222656 309.242188 193.300781 308.820312 194.097656 307.976562 C 195.640625 306.347656 195.570312 303.78125 193.941406 302.242188 L 181.152344 290.164062 C 183.710938 290.351562 186.277344 290.476562 188.847656 290.476562 C 223.699219 290.476562 255.90625 273.078125 275.011719 243.929688 C 276.238281 242.054688 275.710938 239.542969 273.835938 238.316406 C 271.957031 237.09375 269.441406 237.617188 268.207031 239.488281 C 250.613281 266.335938 220.945312 282.367188 188.847656 282.367188 C 185.847656 282.367188 182.851562 282.222656 179.871094 281.941406 Z M 179.871094 281.941406 " fill-opacity="1" fill-rule="nonzero"/></g><g clip-path="url(#ef091868c0)"><path fill="#ffffff" d="M 103.21875 130.832031 C 101.972656 132.695312 102.476562 135.210938 104.34375 136.457031 C 105.035156 136.917969 105.820312 137.136719 106.597656 137.136719 C 107.910156 137.136719 109.195312 136.503906 109.980469 135.335938 C 127.625 108.949219 157.109375 93.199219 188.847656 93.199219 C 190.011719 93.199219 191.175781 93.257812 192.34375 93.300781 L 176.648438 108.171875 C 175.019531 109.714844 174.953125 112.28125 176.5 113.90625 C 177.296875 114.746094 178.371094 115.167969 179.445312 115.167969 C 180.449219 115.167969 181.457031 114.800781 182.242188 114.054688 L 204.542969 92.917969 C 205.359375 92.148438 205.816406 91.078125 205.808594 89.960938 C 205.804688 88.839844 205.335938 87.773438 204.519531 87.011719 L 182.996094 66.988281 C 181.351562 65.460938 178.78125 65.550781 177.253906 67.191406 C 175.722656 68.828125 175.8125 71.394531 177.453125 72.921875 L 190.585938 85.136719 C 190.003906 85.128906 189.425781 85.089844 188.847656 85.089844 C 154.390625 85.089844 122.378906 102.1875 103.21875 130.832031 Z M 103.21875 130.832031 " fill-opacity="1" fill-rule="nonzero"/></g></svg>