<svg xmlns="http://www.w3.org/2000/svg" xmlns:xlink="http://www.w3.org/1999/xlink" width="500" zoomAndPan="magnify" viewBox="0 0 375 374.999991" height="500" preserveAspectRatio="xMidYMid meet" version="1.0"><rect x="-37.5" width="450" fill="#ffffff" y="-37.499999" height="449.999989" fill-opacity="1"/><rect x="-37.5" width="450" fill="#ffffff" y="-37.499999" height="449.999989" fill-opacity="1"/><rect x="-37.5" width="450" fill="#bb1b29" y="-37.499999" height="449.999989" fill-opacity="1"/><path fill="#ffffff" d="M 193.183594 115.125 L 193.183594 111.527344 C 193.183594 111.089844 193.140625 110.65625 193.054688 110.226562 C 192.96875 109.800781 192.84375 109.382812 192.675781 108.980469 C 192.507812 108.574219 192.304688 108.191406 192.058594 107.828125 C 191.816406 107.464844 191.542969 107.128906 191.230469 106.820312 C 190.921875 106.511719 190.585938 106.234375 190.222656 105.992188 C 189.859375 105.75 189.476562 105.542969 189.074219 105.378906 C 188.667969 105.210938 188.253906 105.082031 187.824219 105 C 187.394531 104.914062 186.960938 104.871094 186.523438 104.871094 C 186.089844 104.871094 185.65625 104.914062 185.226562 105 C 184.796875 105.082031 184.382812 105.210938 183.976562 105.378906 C 183.574219 105.542969 183.191406 105.75 182.828125 105.992188 C 182.464844 106.234375 182.128906 106.511719 181.816406 106.820312 C 181.507812 107.128906 181.234375 107.464844 180.992188 107.828125 C 180.746094 108.191406 180.542969 108.574219 180.375 108.980469 C 180.207031 109.382812 180.082031 109.800781 179.996094 110.226562 C 179.910156 110.65625 179.867188 111.089844 179.867188 111.527344 L 179.867188 115.125 C 179.867188 115.5625 179.910156 115.996094 179.996094 116.425781 C 180.082031 116.855469 180.207031 117.269531 180.375 117.675781 C 180.542969 118.078125 180.746094 118.460938 180.992188 118.824219 C 181.234375 119.1875 181.507812 119.523438 181.816406 119.832031 C 182.128906 120.140625 182.464844 120.417969 182.828125 120.660156 C 183.191406 120.902344 183.574219 121.109375 183.976562 121.277344 C 184.382812 121.445312 184.796875 121.570312 185.226562 121.65625 C 185.65625 121.742188 186.089844 121.785156 186.523438 121.785156 C 186.960938 121.785156 187.394531 121.742188 187.824219 121.65625 C 188.253906 121.570312 188.667969 121.445312 189.074219 121.277344 C 189.476562 121.109375 189.859375 120.902344 190.222656 120.660156 C 190.585938 120.417969 190.921875 120.140625 191.230469 119.832031 C 191.542969 119.523438 191.816406 119.1875 192.058594 118.824219 C 192.304688 118.460938 192.507812 118.078125 192.675781 117.675781 C 192.84375 117.269531 192.96875 116.855469 193.054688 116.425781 C 193.140625 115.996094 193.183594 115.5625 193.183594 115.125 Z M 193.183594 115.125 " fill-opacity="1" fill-rule="nonzero"/><path fill="#ffffff" d="M 186.523438 251.710938 C 186.085938 251.710938 185.652344 251.753906 185.21875 251.839844 C 184.789062 251.925781 184.371094 252.054688 183.964844 252.222656 C 183.5625 252.390625 183.175781 252.597656 182.8125 252.84375 C 182.445312 253.089844 182.109375 253.367188 181.800781 253.679688 C 181.492188 253.988281 181.214844 254.328125 180.972656 254.695312 C 180.730469 255.0625 180.527344 255.449219 180.359375 255.855469 C 180.195312 256.261719 180.070312 256.679688 179.988281 257.113281 C 179.90625 257.542969 179.867188 257.976562 179.867188 258.417969 L 179.867188 262.015625 C 179.867188 262.453125 179.910156 262.886719 179.996094 263.316406 C 180.082031 263.742188 180.207031 264.160156 180.375 264.5625 C 180.542969 264.96875 180.746094 265.351562 180.992188 265.714844 C 181.234375 266.078125 181.507812 266.414062 181.816406 266.722656 C 182.128906 267.03125 182.464844 267.308594 182.828125 267.550781 C 183.191406 267.792969 183.574219 268 183.976562 268.167969 C 184.382812 268.332031 184.796875 268.460938 185.226562 268.546875 C 185.65625 268.628906 186.089844 268.671875 186.523438 268.671875 C 186.960938 268.671875 187.394531 268.628906 187.824219 268.546875 C 188.253906 268.460938 188.667969 268.332031 189.074219 268.167969 C 189.476562 268 189.859375 267.792969 190.222656 267.550781 C 190.585938 267.308594 190.921875 267.03125 191.230469 266.722656 C 191.542969 266.414062 191.816406 266.078125 192.058594 265.714844 C 192.304688 265.351562 192.507812 264.96875 192.675781 264.5625 C 192.84375 264.160156 192.96875 263.742188 193.054688 263.316406 C 193.140625 262.886719 193.183594 262.453125 193.183594 262.015625 L 193.183594 258.417969 C 193.1875 257.976562 193.152344 257.539062 193.070312 257.109375 C 192.992188 256.675781 192.867188 256.253906 192.703125 255.847656 C 192.539062 255.4375 192.335938 255.050781 192.09375 254.683594 C 191.851562 254.316406 191.574219 253.976562 191.265625 253.664062 C 190.953125 253.351562 190.617188 253.074219 190.25 252.828125 C 189.886719 252.582031 189.5 252.375 189.09375 252.210938 C 188.683594 252.042969 188.265625 251.914062 187.832031 251.832031 C 187.402344 251.746094 186.964844 251.707031 186.523438 251.710938 Z M 186.523438 251.710938 " fill-opacity="1" fill-rule="nonzero"/><path fill="#ffffff" d="M 258.121094 180.066406 C 257.683594 180.066406 257.25 180.109375 256.824219 180.195312 C 256.394531 180.277344 255.976562 180.40625 255.574219 180.574219 C 255.171875 180.738281 254.785156 180.945312 254.421875 181.1875 C 254.058594 181.429688 253.722656 181.707031 253.414062 182.015625 C 253.105469 182.324219 252.828125 182.660156 252.585938 183.023438 C 252.34375 183.386719 252.136719 183.769531 251.972656 184.175781 C 251.804688 184.578125 251.675781 184.996094 251.59375 185.425781 C 251.507812 185.851562 251.464844 186.285156 251.464844 186.722656 C 251.464844 187.160156 251.507812 187.59375 251.59375 188.019531 C 251.675781 188.449219 251.804688 188.867188 251.972656 189.269531 C 252.136719 189.671875 252.34375 190.058594 252.585938 190.421875 C 252.828125 190.785156 253.105469 191.121094 253.414062 191.429688 C 253.722656 191.738281 254.058594 192.015625 254.421875 192.257812 C 254.785156 192.5 255.171875 192.707031 255.574219 192.871094 C 255.976562 193.039062 256.394531 193.164062 256.824219 193.25 C 257.25 193.335938 257.683594 193.378906 258.121094 193.378906 L 261.769531 193.378906 C 262.207031 193.378906 262.640625 193.335938 263.070312 193.25 C 263.496094 193.164062 263.914062 193.039062 264.316406 192.871094 C 264.722656 192.707031 265.105469 192.5 265.46875 192.257812 C 265.832031 192.015625 266.167969 191.738281 266.476562 191.429688 C 266.785156 191.121094 267.0625 190.785156 267.304688 190.421875 C 267.546875 190.058594 267.753906 189.671875 267.921875 189.269531 C 268.085938 188.867188 268.214844 188.449219 268.296875 188.019531 C 268.382812 187.59375 268.425781 187.160156 268.425781 186.722656 C 268.425781 186.285156 268.382812 185.851562 268.296875 185.425781 C 268.214844 184.996094 268.085938 184.578125 267.921875 184.175781 C 267.753906 183.769531 267.546875 183.386719 267.304688 183.023438 C 267.0625 182.660156 266.785156 182.324219 266.476562 182.015625 C 266.167969 181.707031 265.832031 181.429688 265.46875 181.1875 C 265.105469 180.945312 264.722656 180.738281 264.316406 180.574219 C 263.914062 180.40625 263.496094 180.277344 263.070312 180.195312 C 262.640625 180.109375 262.207031 180.066406 261.769531 180.066406 Z M 258.121094 180.066406 " fill-opacity="1" fill-rule="nonzero"/><path fill="#ffffff" d="M 111.328125 180.066406 C 110.894531 180.066406 110.460938 180.109375 110.03125 180.195312 C 109.601562 180.277344 109.1875 180.40625 108.78125 180.574219 C 108.378906 180.738281 107.996094 180.945312 107.632812 181.1875 C 107.269531 181.429688 106.933594 181.707031 106.621094 182.015625 C 106.3125 182.324219 106.039062 182.660156 105.796875 183.023438 C 105.550781 183.386719 105.347656 183.769531 105.179688 184.175781 C 105.011719 184.578125 104.886719 184.996094 104.800781 185.425781 C 104.714844 185.851562 104.671875 186.285156 104.671875 186.722656 C 104.671875 187.160156 104.714844 187.59375 104.800781 188.019531 C 104.886719 188.449219 105.011719 188.867188 105.179688 189.269531 C 105.347656 189.671875 105.550781 190.058594 105.796875 190.421875 C 106.039062 190.785156 106.3125 191.121094 106.621094 191.429688 C 106.933594 191.738281 107.269531 192.015625 107.632812 192.257812 C 107.996094 192.5 108.378906 192.707031 108.78125 192.871094 C 109.1875 193.039062 109.601562 193.164062 110.03125 193.25 C 110.460938 193.335938 110.894531 193.378906 111.328125 193.378906 L 114.929688 193.378906 C 115.367188 193.378906 115.800781 193.335938 116.226562 193.25 C 116.65625 193.164062 117.074219 193.039062 117.476562 192.871094 C 117.878906 192.707031 118.265625 192.5 118.628906 192.257812 C 118.992188 192.015625 119.328125 191.738281 119.636719 191.429688 C 119.945312 191.121094 120.222656 190.785156 120.464844 190.421875 C 120.707031 190.058594 120.910156 189.671875 121.078125 189.269531 C 121.246094 188.867188 121.371094 188.449219 121.457031 188.019531 C 121.542969 187.59375 121.585938 187.160156 121.585938 186.722656 C 121.585938 186.285156 121.542969 185.851562 121.457031 185.425781 C 121.371094 184.996094 121.246094 184.578125 121.078125 184.175781 C 120.910156 183.769531 120.707031 183.386719 120.464844 183.023438 C 120.222656 182.660156 119.945312 182.324219 119.636719 182.015625 C 119.328125 181.707031 118.992188 181.429688 118.628906 181.1875 C 118.265625 180.945312 117.878906 180.738281 117.476562 180.574219 C 117.074219 180.40625 116.65625 180.277344 116.226562 180.195312 C 115.800781 180.109375 115.367188 180.066406 114.929688 180.066406 Z M 111.328125 180.066406 " fill-opacity="1" fill-rule="nonzero"/><path fill="#ffffff" d="M 284.453125 151.171875 C 284.304688 150.757812 284.121094 150.363281 283.894531 149.988281 C 283.671875 149.609375 283.414062 149.257812 283.117188 148.933594 C 282.824219 148.609375 282.5 148.316406 282.148438 148.058594 C 281.796875 147.796875 281.421875 147.574219 281.023438 147.386719 C 280.625 147.203125 280.214844 147.054688 279.789062 146.953125 C 279.363281 146.847656 278.929688 146.789062 278.492188 146.769531 C 278.054688 146.75 277.621094 146.777344 277.1875 146.84375 C 276.753906 146.914062 276.332031 147.023438 275.921875 147.175781 C 275.511719 147.324219 275.117188 147.511719 274.742188 147.738281 C 274.367188 147.964844 274.019531 148.226562 273.695312 148.519531 C 273.375 148.816406 273.082031 149.140625 272.824219 149.492188 C 272.5625 149.84375 272.34375 150.21875 272.15625 150.613281 C 271.972656 151.011719 271.824219 151.421875 271.722656 151.84375 C 271.617188 152.269531 271.554688 152.703125 271.535156 153.136719 C 271.515625 153.574219 271.539062 154.007812 271.605469 154.441406 C 271.671875 154.875 271.777344 155.296875 271.925781 155.707031 C 275.597656 165.71875 277.421875 176.058594 277.402344 186.722656 C 277.402344 188.46875 277.355469 190.210938 277.253906 191.953125 C 277.15625 193.695312 277.007812 195.433594 276.808594 197.167969 C 276.609375 198.902344 276.363281 200.628906 276.0625 202.347656 C 275.765625 204.066406 275.417969 205.777344 275.023438 207.476562 C 274.625 209.175781 274.179688 210.863281 273.6875 212.535156 C 273.191406 214.210938 272.652344 215.867188 272.0625 217.511719 C 271.472656 219.152344 270.835938 220.777344 270.15625 222.382812 C 269.472656 223.988281 268.742188 225.574219 267.96875 227.140625 C 267.195312 228.703125 266.378906 230.242188 265.515625 231.761719 C 264.652344 233.277344 263.746094 234.769531 262.796875 236.234375 C 261.847656 237.699219 260.859375 239.132812 259.828125 240.542969 C 258.796875 241.949219 257.726562 243.328125 256.613281 244.671875 C 255.503906 246.019531 254.355469 247.332031 253.171875 248.613281 C 251.984375 249.894531 250.761719 251.136719 249.503906 252.347656 C 248.246094 253.558594 246.953125 254.730469 245.628906 255.863281 C 244.304688 257 242.949219 258.097656 241.558594 259.152344 C 240.171875 260.210938 238.753906 261.226562 237.304688 262.203125 C 235.859375 263.179688 234.386719 264.113281 232.882812 265.003906 C 231.382812 265.894531 229.859375 266.738281 228.308594 267.542969 C 226.757812 268.347656 225.1875 269.105469 223.59375 269.816406 C 222.003906 270.527344 220.390625 271.195312 218.757812 271.8125 C 217.128906 272.433594 215.480469 273.007812 213.816406 273.53125 C 212.152344 274.054688 210.472656 274.53125 208.78125 274.960938 C 207.089844 275.386719 205.386719 275.765625 203.671875 276.097656 C 201.957031 276.425781 200.238281 276.707031 198.507812 276.9375 C 196.777344 277.167969 195.042969 277.351562 193.300781 277.480469 C 191.5625 277.613281 189.820312 277.691406 188.074219 277.722656 C 186.328125 277.753906 184.585938 277.734375 182.84375 277.664062 C 181.097656 277.59375 179.359375 277.476562 177.621094 277.304688 C 175.882812 277.136719 174.152344 276.917969 172.429688 276.648438 C 170.707031 276.378906 168.992188 276.058594 167.285156 275.691406 C 165.578125 275.320312 163.886719 274.902344 162.203125 274.4375 C 160.519531 273.972656 158.855469 273.457031 157.203125 272.898438 C 155.550781 272.335938 153.914062 271.726562 152.296875 271.070312 C 150.679688 270.414062 149.085938 269.710938 147.507812 268.964844 C 145.929688 268.214844 144.375 267.421875 142.84375 266.585938 C 141.316406 265.75 139.808594 264.867188 138.328125 263.945312 C 136.847656 263.019531 135.394531 262.054688 133.972656 261.046875 C 132.546875 260.039062 131.152344 258.992188 129.785156 257.902344 C 128.421875 256.8125 127.089844 255.6875 125.789062 254.523438 C 124.492188 253.359375 123.226562 252.15625 121.996094 250.917969 C 120.765625 249.683594 119.570312 248.410156 118.414062 247.105469 C 117.257812 245.796875 116.140625 244.460938 115.058594 243.089844 C 113.980469 241.71875 112.9375 240.316406 111.9375 238.886719 C 110.941406 237.457031 109.984375 235.996094 109.066406 234.511719 C 108.152344 233.027344 107.28125 231.515625 106.449219 229.980469 C 105.621094 228.445312 104.839844 226.886719 104.101562 225.304688 C 103.363281 223.722656 102.667969 222.121094 102.023438 220.5 C 101.375 218.878906 100.777344 217.242188 100.222656 215.585938 C 99.671875 213.929688 99.167969 212.261719 98.710938 210.578125 C 98.253906 208.890625 97.847656 207.195312 97.488281 205.488281 C 97.132812 203.78125 96.820312 202.0625 96.5625 200.335938 C 96.304688 198.613281 96.09375 196.878906 95.933594 195.140625 C 95.773438 193.40625 95.664062 191.664062 95.605469 189.917969 C 95.542969 188.175781 95.535156 186.429688 95.574219 184.6875 C 95.617188 182.941406 95.707031 181.199219 95.847656 179.460938 C 95.988281 177.722656 96.179688 175.988281 96.421875 174.257812 C 96.664062 172.53125 96.953125 170.808594 97.292969 169.097656 C 97.632812 167.386719 98.023438 165.6875 98.460938 163.996094 C 98.898438 162.308594 99.382812 160.632812 99.917969 158.972656 C 100.453125 157.308594 101.035156 155.664062 101.664062 154.039062 C 102.292969 152.410156 102.96875 150.800781 103.691406 149.210938 C 104.410156 147.625 105.179688 146.058594 105.992188 144.511719 C 106.800781 142.96875 107.65625 141.445312 108.558594 139.953125 C 109.457031 138.457031 110.398438 136.988281 111.382812 135.546875 C 112.367188 134.105469 113.390625 132.691406 114.457031 131.3125 C 115.519531 129.929688 116.625 128.578125 117.769531 127.257812 C 118.910156 125.941406 120.089844 124.65625 121.308594 123.40625 C 122.527344 122.15625 123.777344 120.941406 125.066406 119.761719 C 126.351562 118.582031 127.671875 117.441406 129.023438 116.339844 C 130.375 115.238281 131.757812 114.171875 133.171875 113.152344 C 134.585938 112.128906 136.03125 111.144531 137.5 110.207031 C 138.96875 109.265625 140.464844 108.367188 141.988281 107.515625 C 143.511719 106.660156 145.054688 105.851562 146.625 105.085938 C 148.191406 104.320312 149.78125 103.601562 151.390625 102.929688 C 153 102.257812 154.628906 101.628906 156.277344 101.050781 C 157.921875 100.46875 159.582031 99.9375 161.261719 99.453125 C 162.9375 98.972656 164.625 98.535156 166.328125 98.148438 C 168.027344 97.761719 169.742188 97.425781 171.460938 97.136719 C 173.183594 96.847656 174.910156 96.609375 176.644531 96.421875 C 178.378906 96.234375 180.121094 96.09375 181.863281 96.003906 C 183.605469 95.917969 185.347656 95.878906 187.09375 95.890625 C 188.839844 95.902344 190.582031 95.964844 192.324219 96.078125 C 194.066406 96.1875 195.804688 96.351562 197.535156 96.5625 C 199.265625 96.777344 200.992188 97.039062 202.707031 97.347656 C 204.425781 97.660156 206.132812 98.019531 207.828125 98.429688 C 209.523438 98.839844 211.207031 99.300781 212.878906 99.804688 C 214.546875 100.3125 216.203125 100.867188 217.839844 101.46875 C 219.476562 102.070312 221.097656 102.71875 222.699219 103.414062 C 224.300781 104.109375 225.878906 104.851562 227.4375 105.636719 C 228.996094 106.421875 230.527344 107.253906 232.039062 108.128906 C 233.550781 109.003906 235.03125 109.917969 236.488281 110.878906 C 237.949219 111.839844 239.375 112.839844 240.777344 113.882812 C 242.175781 114.925781 243.542969 116.007812 244.882812 117.128906 C 246.21875 118.25 247.523438 119.40625 248.792969 120.601562 C 250.066406 121.800781 251.300781 123.03125 252.5 124.296875 L 186.773438 177.945312 L 166.554688 159.453125 C 166.265625 159.1875 165.953125 158.945312 165.617188 158.734375 C 165.285156 158.523438 164.933594 158.339844 164.566406 158.191406 C 164.199219 158.042969 163.824219 157.925781 163.4375 157.84375 C 163.050781 157.765625 162.65625 157.71875 162.261719 157.707031 C 161.867188 157.695312 161.472656 157.71875 161.082031 157.777344 C 160.691406 157.839844 160.308594 157.933594 159.933594 158.058594 C 159.558594 158.1875 159.199219 158.347656 158.855469 158.542969 C 158.507812 158.734375 158.183594 158.957031 157.878906 159.207031 C 157.570312 159.457031 157.285156 159.734375 157.027344 160.035156 C 156.765625 160.335938 156.535156 160.65625 156.335938 160.996094 C 156.132812 161.339844 155.960938 161.695312 155.824219 162.070312 C 155.6875 162.441406 155.582031 162.824219 155.511719 163.214844 C 155.445312 163.605469 155.410156 163.996094 155.410156 164.394531 C 155.410156 164.792969 155.449219 165.183594 155.519531 165.574219 C 155.589844 165.964844 155.695312 166.347656 155.835938 166.71875 C 155.972656 167.089844 156.144531 167.445312 156.347656 167.789062 L 181.003906 208.761719 C 181.535156 209.644531 182.234375 210.367188 183.101562 210.929688 C 183.964844 211.492188 184.910156 211.839844 185.933594 211.96875 L 186.722656 211.96875 C 187.648438 211.992188 188.542969 211.828125 189.402344 211.476562 C 190.257812 211.125 191.011719 210.613281 191.652344 209.945312 L 283.8125 116.261719 C 284.132812 115.964844 284.425781 115.640625 284.6875 115.289062 C 284.945312 114.9375 285.167969 114.5625 285.355469 114.167969 C 285.539062 113.773438 285.6875 113.363281 285.792969 112.9375 C 285.898438 112.511719 285.960938 112.082031 285.980469 111.644531 C 286 111.207031 285.976562 110.773438 285.914062 110.339844 C 285.847656 109.90625 285.742188 109.484375 285.59375 109.074219 C 285.445312 108.660156 285.257812 108.269531 285.03125 107.894531 C 284.804688 107.519531 284.546875 107.167969 284.25 106.847656 C 283.957031 106.523438 283.632812 106.230469 283.28125 105.96875 C 282.929688 105.710938 282.554688 105.488281 282.160156 105.300781 C 281.765625 105.113281 281.355469 104.96875 280.929688 104.863281 C 280.503906 104.757812 280.074219 104.695312 279.636719 104.671875 C 279.199219 104.652344 278.765625 104.675781 278.332031 104.738281 C 277.898438 104.804688 277.476562 104.910156 277.066406 105.058594 C 276.652344 105.207031 276.261719 105.394531 275.886719 105.621094 C 275.511719 105.84375 275.160156 106.105469 274.835938 106.398438 L 263.199219 115.914062 C 261.757812 114.371094 260.265625 112.871094 258.730469 111.414062 C 257.195312 109.960938 255.617188 108.554688 253.996094 107.199219 C 252.375 105.839844 250.710938 104.535156 249.007812 103.277344 C 247.308594 102.023438 245.570312 100.820312 243.792969 99.671875 C 242.019531 98.523438 240.210938 97.429688 238.367188 96.390625 C 236.523438 95.351562 234.652344 94.371094 232.75 93.445312 C 230.847656 92.523438 228.917969 91.660156 226.960938 90.851562 C 225.003906 90.046875 223.027344 89.304688 221.027344 88.617188 C 219.023438 87.933594 217.003906 87.3125 214.964844 86.753906 C 212.925781 86.191406 210.871094 85.695312 208.800781 85.261719 C 206.730469 84.824219 204.648438 84.453125 202.558594 84.148438 C 200.464844 83.839844 198.363281 83.597656 196.257812 83.421875 C 194.148438 83.242188 192.039062 83.128906 189.925781 83.078125 C 187.8125 83.03125 185.695312 83.046875 183.582031 83.125 C 181.46875 83.207031 179.359375 83.351562 177.257812 83.5625 C 175.152344 83.773438 173.054688 84.046875 170.96875 84.382812 C 168.878906 84.722656 166.804688 85.125 164.742188 85.589844 C 162.679688 86.054688 160.632812 86.582031 158.601562 87.175781 C 156.570312 87.765625 154.558594 88.417969 152.570312 89.132812 C 150.578125 89.847656 148.609375 90.621094 146.667969 91.457031 C 144.722656 92.289062 142.808594 93.183594 140.917969 94.136719 C 139.03125 95.085938 137.171875 96.097656 135.347656 97.160156 C 133.519531 98.226562 131.726562 99.347656 129.96875 100.523438 C 128.210938 101.699219 126.492188 102.929688 124.808594 104.210938 C 123.125 105.492188 121.484375 106.820312 119.882812 108.203125 C 118.28125 109.585938 116.722656 111.015625 115.210938 112.492188 C 113.695312 113.96875 112.230469 115.492188 110.808594 117.058594 C 109.386719 118.625 108.015625 120.234375 106.695312 121.886719 C 105.375 123.535156 104.105469 125.226562 102.886719 126.953125 C 101.667969 128.683594 100.503906 130.449219 99.394531 132.25 C 98.28125 134.046875 97.230469 135.882812 96.230469 137.746094 C 95.234375 139.609375 94.292969 141.503906 93.410156 143.425781 C 92.53125 145.347656 91.707031 147.296875 90.945312 149.269531 C 90.183594 151.242188 89.480469 153.234375 88.839844 155.25 C 88.199219 157.265625 87.621094 159.300781 87.105469 161.351562 C 86.589844 163.402344 86.140625 165.46875 85.75 167.546875 C 85.359375 169.625 85.035156 171.714844 84.773438 173.8125 C 84.511719 175.914062 84.316406 178.015625 84.183594 180.128906 C 84.050781 182.238281 83.984375 184.351562 83.980469 186.464844 C 83.980469 188.582031 84.042969 190.695312 84.167969 192.804688 C 84.296875 194.917969 84.484375 197.023438 84.742188 199.121094 C 84.996094 201.222656 85.316406 203.3125 85.703125 205.390625 C 86.085938 207.46875 86.53125 209.535156 87.042969 211.589844 C 87.554688 213.640625 88.125 215.675781 88.761719 217.695312 C 89.394531 219.710938 90.09375 221.707031 90.851562 223.679688 C 91.605469 225.65625 92.425781 227.605469 93.300781 229.53125 C 94.179688 231.457031 95.113281 233.351562 96.105469 235.21875 C 97.097656 237.085938 98.148438 238.921875 99.253906 240.722656 C 100.359375 242.527344 101.519531 244.292969 102.734375 246.027344 C 103.945312 247.757812 105.210938 249.453125 106.53125 251.105469 C 107.847656 252.761719 109.214844 254.375 110.628906 255.945312 C 112.046875 257.515625 113.511719 259.039062 115.019531 260.519531 C 116.53125 262.003906 118.082031 263.4375 119.679688 264.820312 C 121.277344 266.207031 122.917969 267.542969 124.597656 268.828125 C 126.277344 270.113281 127.992188 271.347656 129.75 272.527344 C 131.503906 273.707031 133.292969 274.832031 135.117188 275.902344 C 136.941406 276.972656 138.796875 277.988281 140.683594 278.945312 C 142.570312 279.902344 144.484375 280.800781 146.421875 281.636719 C 148.363281 282.476562 150.328125 283.257812 152.320312 283.976562 C 154.308594 284.695312 156.316406 285.351562 158.347656 285.949219 C 160.375 286.546875 162.421875 287.078125 164.484375 287.550781 C 166.542969 288.019531 168.617188 288.425781 170.707031 288.769531 C 172.792969 289.113281 174.886719 289.394531 176.992188 289.609375 C 179.097656 289.824219 181.203125 289.976562 183.316406 290.0625 C 185.429688 290.148438 187.542969 290.167969 189.660156 290.125 C 191.773438 290.082031 193.886719 289.972656 195.992188 289.800781 C 198.101562 289.628906 200.203125 289.390625 202.292969 289.089844 C 204.386719 288.789062 206.46875 288.421875 208.542969 287.992188 C 210.613281 287.5625 212.667969 287.070312 214.707031 286.515625 C 216.75 285.960938 218.773438 285.34375 220.773438 284.664062 C 222.777344 283.988281 224.757812 283.246094 226.714844 282.445312 C 228.671875 281.644531 230.605469 280.785156 232.507812 279.867188 C 234.414062 278.949219 236.289062 277.972656 238.136719 276.9375 C 239.980469 275.90625 241.792969 274.816406 243.570312 273.671875 C 245.347656 272.527344 247.089844 271.328125 248.796875 270.078125 C 250.5 268.828125 252.164062 267.523438 253.789062 266.171875 C 255.417969 264.816406 257 263.414062 258.539062 261.964844 C 260.078125 260.515625 261.570312 259.019531 263.019531 257.476562 C 264.464844 255.933594 265.863281 254.351562 267.214844 252.722656 C 268.566406 251.09375 269.867188 249.429688 271.113281 247.722656 C 272.363281 246.015625 273.558594 244.269531 274.699219 242.488281 C 275.839844 240.710938 276.925781 238.894531 277.957031 237.046875 C 278.988281 235.203125 279.960938 233.324219 280.875 231.417969 C 281.792969 229.511719 282.648438 227.578125 283.445312 225.621094 C 284.242188 223.660156 284.976562 221.679688 285.652344 219.675781 C 286.328125 217.671875 286.941406 215.648438 287.492188 213.605469 C 288.046875 211.5625 288.535156 209.507812 288.960938 207.4375 C 289.386719 205.363281 289.746094 203.28125 290.046875 201.1875 C 290.34375 199.09375 290.578125 196.992188 290.746094 194.882812 C 290.914062 192.777344 291.019531 190.664062 291.058594 188.550781 C 291.097656 186.4375 291.074219 184.320312 290.984375 182.207031 C 290.894531 180.097656 290.742188 177.988281 290.523438 175.882812 C 290.304688 173.78125 290.019531 171.683594 289.671875 169.597656 C 289.324219 167.511719 288.914062 165.4375 288.441406 163.378906 C 287.964844 161.316406 287.429688 159.273438 286.828125 157.246094 C 286.230469 155.214844 285.570312 153.207031 284.847656 151.21875 Z M 284.453125 151.171875 " fill-opacity="1" fill-rule="nonzero"/></svg>